<?xml version="1.0" encoding="UTF-8"?>
<!DOCTYPE svg PUBLIC "-//W3C//DTD SVG 1.1//EN" "http://www.w3.org/Graphics/SVG/1.1/DTD/svg11.dtd">
<!-- Creator: CorelDRAW 2020 (64-Bit) -->
<svg xmlns="http://www.w3.org/2000/svg" xml:space="preserve" width="11.6929in" height="8.26772in" version="1.1" style="shape-rendering:geometricPrecision; text-rendering:geometricPrecision; image-rendering:optimizeQuality; fill-rule:evenodd; clip-rule:evenodd"
viewBox="0 0 11692.91 8267.72"
 xmlns:xlink="http://www.w3.org/1999/xlink"
 xmlns:xodm="http://www.corel.com/coreldraw/odm/2003">
 <defs>
  <style type="text/css">
   <![CDATA[
    .fil0 {fill:#FF914C}
   ]]>
  </style>
 </defs>
 <g id="Capa_x0020_1">
  <metadata id="CorelCorpID_0Corel-Layer"/>
  <path class="fil0" d="M2765.24 3368.06l345.61 523.37 0 -439.16c0,-94.21 21.57,-187.73 84.12,-260.85 62.75,-73.35 149.91,-110.3 246.09,-110.3 96.39,0 184.56,35.76 248.09,109 63.47,73.16 85.3,167.39 85.3,262.16l0 1342.15c0,225.68 -120.83,397.78 -359.23,397.78 -48.64,0 -96.68,-7.24 -142.54,-23.75 -46.59,-16.77 -89.09,-42.84 -126.04,-75.71 -32.41,-28.84 -60.73,-61.56 -86,-96.78 -19.49,-27.17 -38.79,-54.48 -57.8,-82l-1.31 -1.9 -331.17 -507.62 0 416.6c0,96.65 -23.98,191.49 -90.46,264.5 -64.06,70.33 -149.97,106.66 -244.92,106.66 -96.56,0 -184.05,-36.66 -247.91,-109.52 -64.02,-73.04 -87.47,-166.38 -87.47,-261.63l0 -1316.32c0,-65.01 6.74,-133.12 30.38,-194.13l0.89 -2.3 0.95 -2.27c28.77,-68.42 76.96,-124.02 139.28,-164.24 61.51,-39.7 131.16,-60.67 204.42,-60.67 52.41,0 104.38,8.94 152.22,30.93 41.22,18.94 78.33,44.85 110.02,77.3 27.71,28.37 51.69,60.46 73.09,93.78 18.17,28.29 36.51,56.45 54.38,84.93z"/>
  <path class="fil0" d="M5840.39 3716.2c0.19,-0.55 0.38,-1.1 0.57,-1.65 43.66,-126.61 109.22,-242.33 200.52,-340.74 90.41,-97.46 200.22,-170.07 323.65,-219.2 131.45,-52.32 272.01,-73.49 413.02,-73.49 189.14,0 375.33,36.32 541.17,130.17 157.78,89.28 278.13,217.61 358.24,380.26 83.29,169.12 115.59,355.31 115.59,542.73 0,140.33 -18.2,280.7 -62.46,414.19 -42.11,127.04 -106.64,242.91 -196.52,342.29 -90.86,100.45 -201.21,175.52 -326.87,226.11 -134.18,54.03 -277.9,75.33 -422,75.33 -145.09,0 -289.27,-22.58 -424.02,-77.65 -125.25,-51.19 -236.45,-125.7 -327.3,-226.24 -88.24,-97.66 -151.26,-211.75 -193.2,-336 -42.14,125.54 -106.26,240.08 -195.24,338.45 -90.86,100.45 -201.21,175.52 -326.87,226.11 -134.18,54.03 -277.9,75.33 -422,75.33 -145.09,0 -289.27,-22.58 -424.02,-77.65 -125.25,-51.19 -236.45,-125.7 -327.3,-226.24 -90.4,-100.05 -154.33,-217.34 -196.24,-345.14 -43.58,-132.9 -62.68,-271.63 -62.68,-411.28 0,-141.96 19.52,-282.85 65.9,-417.35 43.66,-126.61 109.22,-242.33 200.52,-340.74 90.41,-97.46 200.22,-170.07 323.65,-219.2 131.45,-52.32 272.01,-73.49 413.02,-73.49 189.14,0 375.33,36.32 541.17,130.17 157.78,89.28 278.13,217.61 358.24,380.26 20.01,40.64 37.08,82.26 51.47,124.65zm-632.87 415.7c0,-85.59 -10.94,-176.32 -45.72,-255.3 -23.56,-53.51 -56.81,-99.67 -106.72,-131.13 -50.25,-31.67 -106.56,-43.67 -165.57,-43.67 -41.72,0 -82.6,7.05 -120.86,24.04 -35.3,15.68 -64.62,37.92 -89.61,67.39 -31.41,37.04 -52.58,84.62 -67.11,130.56 -21.11,66.77 -28.5,138.31 -28.5,208.1 0,71.21 7.49,143.79 28.73,212 14.85,47.7 36.74,95.47 69.58,133.58 25.83,29.99 56.08,54.26 92.38,70.35 38.22,16.94 78.5,23.69 120.17,23.69 56.26,0 107.1,-13.23 155.43,-42 50.2,-29.88 84.33,-78.68 109,-130.58 38.25,-80.48 48.81,-178.97 48.81,-267.04zm1888.63 0c0,-85.59 -10.94,-176.32 -45.72,-255.3 -23.56,-53.51 -56.81,-99.67 -106.72,-131.13 -50.25,-31.67 -106.56,-43.67 -165.57,-43.67 -41.72,0 -82.6,7.05 -120.86,24.04 -35.3,15.68 -64.62,37.92 -89.61,67.39 -31.41,37.04 -52.58,84.62 -67.11,130.56 -21.11,66.77 -28.5,138.31 -28.5,208.1 0,71.21 7.49,143.79 28.73,212 14.85,47.7 36.74,95.47 69.58,133.58 25.83,29.99 56.08,54.26 92.38,70.35 38.22,16.94 78.5,23.69 120.17,23.69 56.26,0 107.1,-13.23 155.43,-42 50.2,-29.88 84.33,-78.68 109,-130.58 38.25,-80.48 48.81,-178.97 48.81,-267.04z"/>
  <path class="fil0" d="M8584.43 3631.66l380.54 -397.02c32.93,-34.35 68.75,-69.02 107.55,-96.69 56.44,-40.24 123.36,-56.83 191.98,-56.83 89.9,0 174.34,28.98 240.01,91.24 65.09,61.71 99.75,142.54 99.75,232.22 0,109.44 -54.4,202.51 -132.01,276.01l-311.8 295.28 398.32 570.99c33.99,47.86 66.7,98.69 91.92,151.77 26.78,56.37 42.2,117.07 42.2,179.66 0,87.3 -36.04,165.54 -99.49,225.19 -65.96,62 -150.79,88.74 -240.26,88.74 -76.39,0 -150.99,-17.57 -214.82,-60.83 -51.92,-35.18 -94.16,-81.1 -127,-134.39 -18.96,-30.76 -37.7,-61.67 -55.99,-92.83l-292.41 -449.98 -78.49 75.19 0 278.98c0,101.61 -24.62,202 -96.04,277.79 -66.57,70.63 -154.89,106.08 -251.66,106.08 -60.53,0 -118.2,-16.21 -170.77,-46.14 -54.53,-31.05 -98.35,-74.58 -128.72,-129.59l-1.1 -1.99 -1.05 -2.02c-22.73,-43.85 -34.62,-91.81 -38.71,-140.86 -3.81,-45.78 -4.18,-92.85 -4.18,-138.78l0 -1269.03c0,-98.24 22.85,-195.5 88.96,-271.06 65.75,-75.15 156.26,-111.62 255.56,-111.62 97.35,0 186.19,35.34 252.78,106.85 70.32,75.54 94.93,175.42 94.93,276.22l0 167.46z"/>
 </g>
</svg>
