<?xml version="1.0" encoding="UTF-8" standalone="no"?>
<!-- Created with Inkscape (http://www.inkscape.org/) -->

<svg
   xmlns:dc="http://purl.org/dc/elements/1.1/"
   xmlns:cc="http://creativecommons.org/ns#"
   xmlns:rdf="http://www.w3.org/1999/02/22-rdf-syntax-ns#"
   xmlns:svg="http://www.w3.org/2000/svg"
   xmlns="http://www.w3.org/2000/svg"
   xmlns:sodipodi="http://sodipodi.sourceforge.net/DTD/sodipodi-0.dtd"
   xmlns:inkscape="http://www.inkscape.org/namespaces/inkscape"
   width="33.852909mm"
   height="12.98046mm"
   viewBox="0 0 33.852909 12.98046"
   version="1.1"
   id="svg1800"
   inkscape:version="0.92.0 r15299"
   sodipodi:docname="ripley.svg">
  <defs
     id="defs1794">
    <clipPath
       id="clipPath1571"
       clipPathUnits="userSpaceOnUse">
      <path
         inkscape:connector-curvature="0"
         id="path1569"
         d="M 0,0 H 708.661 V 566.929 H 0 Z" />
    </clipPath>
    <clipPath
       id="clipPath1537"
       clipPathUnits="userSpaceOnUse">
      <path
         inkscape:connector-curvature="0"
         id="path1535"
         d="M 0,0 H 708.661 V 566.929 H 0 Z" />
    </clipPath>
  </defs>
  <sodipodi:namedview
     id="base"
     pagecolor="#ffffff"
     bordercolor="#666666"
     borderopacity="1.0"
     inkscape:pageopacity="0.0"
     inkscape:pageshadow="2"
     inkscape:zoom="6.2681715"
     inkscape:cx="63.973999"
     inkscape:cy="24.530003"
     inkscape:document-units="mm"
     inkscape:current-layer="layer1"
     showgrid="false"
     fit-margin-top="0"
     fit-margin-left="0"
     fit-margin-right="0"
     fit-margin-bottom="0"
     inkscape:window-width="1280"
     inkscape:window-height="744"
     inkscape:window-x="-4"
     inkscape:window-y="-4"
     inkscape:window-maximized="1" />
  <metadata
     id="metadata1797">
    <rdf:RDF>
      <cc:Work
         rdf:about="">
        <dc:format>image/svg+xml</dc:format>
        <dc:type
           rdf:resource="http://purl.org/dc/dcmitype/StillImage" />
        <dc:title></dc:title>
      </cc:Work>
    </rdf:RDF>
  </metadata>
  <g
     inkscape:label="Layer 1"
     inkscape:groupmode="layer"
     id="layer1"
     transform="translate(-42.728349,-210.37882)">
    <g
       id="g2018">
      <path
         inkscape:connector-curvature="0"
         id="path1473"
         style="fill:#ceced1;fill-opacity:1;fill-rule:nonzero;stroke:none;stroke-width:0.35277778"
         d="m 70.568159,223.05483 h -1.038225 v -3.09316 h 1.038225 z" />
      <path
         inkscape:connector-curvature="0"
         id="path1475"
         style="fill:#6a235f;fill-opacity:1;fill-rule:nonzero;stroke:none;stroke-width:0.35277778"
         d="m 53.440446,223.05483 h -2.597502 v -3.09316 h 2.597502 z" />
      <path
         inkscape:connector-curvature="0"
         id="path1477"
         style="fill:#6a235f;fill-opacity:1;fill-rule:nonzero;stroke:none;stroke-width:0.35277778"
         d="m 44.588547,219.96132 h 0.519641 v 3.09316 h -0.519641 z" />
      <path
         inkscape:connector-curvature="0"
         id="path1479"
         style="fill:#fecf00;fill-opacity:1;fill-rule:nonzero;stroke:none;stroke-width:0.35277778"
         d="m 45.109599,219.96132 h 1.558925 v 3.09316 h -1.558925 z" />
      <path
         inkscape:connector-curvature="0"
         id="path1481"
         style="fill:#e33147;fill-opacity:1;fill-rule:nonzero;stroke:none;stroke-width:0.35277778"
         d="m 48.253202,219.96132 h 1.558925 v 3.09316 h -1.558925 z" />
      <path
         inkscape:connector-curvature="0"
         id="path1483"
         style="fill:#ceced1;fill-opacity:1;fill-rule:nonzero;stroke:none;stroke-width:0.35277778"
         d="m 47.186402,219.96132 h 1.068917 v 3.09316 h -1.068917 z" />
      <path
         inkscape:connector-curvature="0"
         id="path1485"
         style="fill:#cd1421;fill-opacity:1;fill-rule:nonzero;stroke:none;stroke-width:0.35277778"
         d="m 54.469499,223.05483 h -1.03893 v -3.09316 h 1.03893 z" />
      <path
         inkscape:connector-curvature="0"
         id="path1487"
         style="fill:#cd1421;fill-opacity:1;fill-rule:nonzero;stroke:none;stroke-width:0.35277778"
         d="m 44.586077,223.05483 h -1.554339 v -3.09316 h 1.554339 z" />
      <path
         inkscape:connector-curvature="0"
         id="path1489"
         style="fill:#6a235f;fill-opacity:1;fill-rule:nonzero;stroke:none;stroke-width:0.35277778"
         d="m 75.248109,223.05483 h -1.558925 v -3.09316 h 1.558925 z" />
      <path
         inkscape:connector-curvature="0"
         id="path1491"
         style="fill:#ceced1;fill-opacity:1;fill-rule:nonzero;stroke:none;stroke-width:0.35277778"
         d="M 56.025602,223.05483 H 54.46703 v -3.09316 h 1.558572 z" />
      <path
         inkscape:connector-curvature="0"
         id="path1493"
         style="fill:#cd1421;fill-opacity:1;fill-rule:nonzero;stroke:none;stroke-width:0.35277778"
         d="m 56.021016,219.96132 h 1.560336 v 3.09316 h -1.560336 z" />
      <path
         inkscape:connector-curvature="0"
         id="path1495"
         style="fill:#6a235f;fill-opacity:1;fill-rule:nonzero;stroke:none;stroke-width:0.35277778"
         d="m 57.582057,219.96132 h 0.519642 v 3.09316 h -0.519642 z" />
      <path
         inkscape:connector-curvature="0"
         id="path1497"
         style="fill:#fecf00;fill-opacity:1;fill-rule:nonzero;stroke:none;stroke-width:0.35277778"
         d="m 49.807541,219.96132 h 1.039989 v 3.09316 h -1.039989 z" />
      <path
         inkscape:connector-curvature="0"
         id="path1499"
         style="fill:#ffffff;fill-opacity:1;fill-rule:nonzero;stroke:none;stroke-width:0.35277778"
         d="m 70.568159,219.96132 h 0.519645 v 3.09316 h -0.519645 z" />
      <path
         inkscape:connector-curvature="0"
         id="path1501"
         style="fill:#fecf00;fill-opacity:1;fill-rule:nonzero;stroke:none;stroke-width:0.35277778"
         d="M 60.182735,223.05483 H 58.62381 v -3.09316 h 1.558925 z" />
      <path
         inkscape:connector-curvature="0"
         id="path1503"
         style="fill:#ceced1;fill-opacity:1;fill-rule:nonzero;stroke:none;stroke-width:0.35277778"
         d="m 65.374213,223.05483 h -0.519642 v -3.09316 h 0.519642 z" />
      <path
         inkscape:connector-curvature="0"
         id="path1505"
         style="fill:#6a235f;fill-opacity:1;fill-rule:nonzero;stroke:none;stroke-width:0.35277778"
         d="m 60.178149,219.96132 h 1.559278 v 3.09316 h -1.559278 z" />
      <path
         inkscape:connector-curvature="0"
         id="path1507"
         style="fill:#e33147;fill-opacity:1;fill-rule:nonzero;stroke:none;stroke-width:0.35277778"
         d="m 61.73778,219.96132 h 1.039636 v 3.09316 H 61.73778 Z" />
      <path
         inkscape:connector-curvature="0"
         id="path1509"
         style="fill:#cd1421;fill-opacity:1;fill-rule:nonzero;stroke:none;stroke-width:0.35277778"
         d="m 62.775299,219.96132 h 0.519994 v 3.09316 h -0.519994 z" />
      <path
         inkscape:connector-curvature="0"
         id="path1511"
         style="fill:#fecf00;fill-opacity:1;fill-rule:nonzero;stroke:none;stroke-width:0.35277778"
         d="m 63.298468,219.96132 h 1.558573 v 3.09316 h -1.558573 z" />
      <path
         inkscape:connector-curvature="0"
         id="path1513"
         style="fill:#ffffff;fill-opacity:1;fill-rule:nonzero;stroke:none;stroke-width:0.35277778"
         d="m 65.369979,219.96132 h 0.519642 v 3.09316 h -0.519642 z" />
      <path
         inkscape:connector-curvature="0"
         id="path1515"
         style="fill:#ffffff;fill-opacity:1;fill-rule:nonzero;stroke:none;stroke-width:0.35277778"
         d="m 58.102757,219.96132 h 0.520348 v 3.09316 h -0.520348 z" />
      <path
         inkscape:connector-curvature="0"
         id="path1517"
         style="fill:#ffffff;fill-opacity:1;fill-rule:nonzero;stroke:none;stroke-width:0.35277778"
         d="m 46.664997,219.96132 h 0.519994 v 3.09316 h -0.519994 z" />
      <path
         inkscape:connector-curvature="0"
         id="path1519"
         style="fill:#cd1421;fill-opacity:1;fill-rule:nonzero;stroke:none;stroke-width:0.35277778"
         d="m 66.928552,219.96132 h 2.598562 v 3.09316 h -2.598562 z" />
      <path
         inkscape:connector-curvature="0"
         id="path1521"
         style="fill:#6a235f;fill-opacity:1;fill-rule:nonzero;stroke:none;stroke-width:0.35277778"
         d="m 65.889621,219.96132 h 1.039283 v 3.09316 h -1.039283 z" />
      <path
         inkscape:connector-curvature="0"
         id="path1523"
         style="fill:#e33147;fill-opacity:1;fill-rule:nonzero;stroke:none;stroke-width:0.35277778"
         d="m 72.645668,223.05483 h -1.559277 v -3.09316 h 1.559277 z" />
      <path
         inkscape:connector-curvature="0"
         id="path1525"
         style="fill:#fecf00;fill-opacity:1;fill-rule:nonzero;stroke:none;stroke-width:0.35277778"
         d="m 72.647784,219.96132 h 1.038932 v 3.09316 h -1.038932 z" />
      <path
         inkscape:connector-curvature="0"
         id="path1527"
         style="fill:#cd1421;fill-opacity:1;fill-rule:nonzero;stroke:none;stroke-width:0.35277778"
         d="m 75.245289,219.96132 h 1.033285 v 3.09316 h -1.033285 z" />
      <path
         inkscape:connector-curvature="0"
         id="path1529"
         style="fill:#191a19;fill-opacity:1;fill-rule:nonzero;stroke:none;stroke-width:0.35277778"
         d="m 76.276457,210.68362 h -33.24366 v 9.28405 h 33.24366 z" />
      <g
         transform="matrix(0.35277777,0,0,-0.35277777,-63.767851,314.92698)"
         id="g1531">
        <g
           clip-path="url(#clipPath1537)"
           id="g1533">
          <g
             transform="translate(327.8859,285.6022)"
             id="g1539">
            <path
               inkscape:connector-curvature="0"
               id="path1541"
               style="fill:#ffffff;fill-opacity:1;fill-rule:nonzero;stroke:none"
               d="m 0,0 c -0.015,0.887 -0.985,0.644 -0.985,0.909 0,0.111 0.024,0.136 0.123,0.136 0.448,0 0.885,-0.049 1.333,-0.049 0.376,0 0.754,0.049 1.129,0.049 0.195,0 0.231,-0.025 0.231,-0.122 C 1.831,0.63 0.956,0.909 0.956,0 v -6.515 c 0,-0.823 1.081,-0.547 1.081,-0.909 0,-0.086 -0.037,-0.122 -0.242,-0.122 -0.28,0 -0.801,0.048 -1.324,0.048 -0.739,0 -0.995,-0.048 -1.167,-0.048 -0.218,0 -0.252,0.058 -0.252,0.183 0,0.352 0.948,-0.049 0.948,1.152 z" />
          </g>
          <g
             transform="translate(340.3687,279.7276)"
             id="g1543">
            <path
               inkscape:connector-curvature="0"
               id="path1545"
               style="fill:#ffffff;fill-opacity:1;fill-rule:nonzero;stroke:none"
               d="m 0,0 c 0,-1.744 1.275,-1.114 1.275,-1.524 0,-0.09 -0.05,-0.148 -0.353,-0.148 -0.415,0 -0.596,0.049 -1.309,0.049 -0.574,0 -0.973,-0.049 -1.326,-0.049 -0.073,0 -0.195,0.037 -0.195,0.148 0,0.325 0.947,-0.049 0.947,1.294 v 5.811 c 0,1.458 -0.995,0.719 -0.995,1.154 0,0.099 0.06,0.185 0.159,0.185 0.109,0 0.536,-0.049 1.237,-0.049 0.605,0 0.801,0.049 1.385,0.049 1.54,0 3.252,-0.535 3.252,-2.341 0,-0.487 -0.366,-2.332 -2.948,-2.332 -0.125,0 -0.827,0.06 -0.827,0.277 0,0.09 0.061,0.113 0.122,0.113 0.096,0 0.353,-0.077 0.788,-0.077 1.237,0 1.965,0.597 1.965,1.69 0,1.466 -1.129,2.243 -2.521,2.243 C 0.265,6.493 0,6.493 0,6.128 Z" />
          </g>
          <g
             transform="translate(353.7402,279.5492)"
             id="g1547">
            <path
               inkscape:connector-curvature="0"
               id="path1549"
               style="fill:#ffffff;fill-opacity:1;fill-rule:nonzero;stroke:none"
               d="m 0,0 c 0,-0.717 -0.098,-1.009 0.92,-1.009 2.803,0 3.217,1.253 3.375,1.253 0.085,0 0.097,-0.124 0.097,-0.146 0,-0.437 -0.315,-0.863 -0.607,-1.178 -0.389,-0.435 -0.654,-0.413 -1.191,-0.413 -0.922,0 -1.843,0.074 -2.764,0.048 -0.484,-0.012 -0.997,-0.048 -1.483,-0.048 -0.107,0 -0.178,0.023 -0.178,0.122 0.02,0.145 0.144,0.12 0.533,0.314 0.315,0.147 0.34,0.485 0.34,1.057 v 6.15 c 0,0.631 -1.018,0.547 -1.018,0.79 0,0.133 0.083,0.158 0.239,0.158 0.256,0 0.633,-0.048 1.225,-0.048 0.694,0 0.985,0.048 1.168,0.048 0.156,0 0.23,-0.025 0.23,-0.169 C 0.886,6.649 0,6.953 0,5.895 Z" />
          </g>
          <g
             transform="translate(368.0316,283.1157)"
             id="g1551">
            <path
               inkscape:connector-curvature="0"
               id="path1553"
               style="fill:#ffffff;fill-opacity:1;fill-rule:nonzero;stroke:none"
               d="m 0,0 c 0,-0.412 -0.026,-0.412 0.46,-0.412 h 1.31 c 1.26,0 0.936,0.97 1.226,0.97 0.098,0 0.133,-0.133 0.133,-0.23 0,-0.425 -0.024,-0.838 -0.024,-1.227 0,-0.314 0.024,-0.631 0.024,-0.956 0,-0.11 -0.047,-0.161 -0.133,-0.161 -0.376,0 0.034,1.068 -0.985,1.068 H 0.217 C -0.037,-0.948 0,-1.152 0,-1.338 v -2.229 c 0,-0.717 -0.098,-1.008 0.921,-1.008 2.802,0 3.216,1.252 3.374,1.252 0.084,0 0.095,-0.123 0.095,-0.145 0,-0.438 -0.315,-0.864 -0.607,-1.179 C 3.395,-5.082 3.129,-5.06 2.595,-5.06 c -0.921,0 -1.844,0.075 -2.766,0.049 -0.488,-0.012 -0.993,-0.049 -1.479,-0.049 -0.11,0 -0.183,0.024 -0.183,0.123 0.024,0.144 0.147,0.12 0.533,0.313 0.317,0.147 0.34,0.486 0.34,1.057 v 5.53 c 0,0.547 0,1.13 -0.655,1.227 -0.098,0.024 -0.364,0.05 -0.364,0.196 0,0.097 0.073,0.146 0.426,0.146 2.292,0 2.925,-0.049 3.433,-0.049 0.241,0 1.358,0.049 1.736,0.049 0.094,0 0.119,-0.123 0.119,-0.27 C 3.735,1.918 3.568,1.819 3.493,1.819 3.204,1.819 3.395,2.403 3.204,2.681 2.889,3.093 1.625,3.019 1.139,3.019 -0.026,3.019 0,3.07 0,2.258 Z" />
          </g>
          <g
             transform="translate(387.6109,286.9103)"
             id="g1555">
            <path
               inkscape:connector-curvature="0"
               id="path1557"
               style="fill:#ffffff;fill-opacity:1;fill-rule:nonzero;stroke:none"
               d="m 0,0 c -0.489,0 -1.117,-0.155 -1.58,-0.562 -0.866,-0.76 -1.445,-2.027 -1.78,-2.837 -0.107,-0.277 -0.214,-0.361 -0.271,-0.361 -0.074,0 -0.149,0.072 -0.245,0.22 l -1.292,2.087 c -0.074,0.109 -0.217,0.302 -0.217,0.497 0,0.351 0.57,0.363 0.57,0.57 0,0.109 -0.148,0.123 -0.232,0.123 -0.121,0 -0.448,-0.049 -0.849,-0.049 -0.825,0 -1.056,0.049 -1.383,0.049 -0.086,0 -0.159,-0.099 -0.159,-0.184 0,-0.205 0.596,-0.06 0.909,-0.583 l 2.027,-3.239 c 0.098,-0.145 0.28,-0.39 0.28,-0.617 v -2.937 c 0,-0.863 -0.934,-0.547 -0.934,-0.884 0,-0.135 0.075,-0.148 0.181,-0.148 0.11,0 0.547,0.049 1.093,0.049 0.45,0 1.152,-0.049 1.335,-0.049 0.168,0 0.278,0.013 0.278,0.123 0,0.374 -0.993,0.036 -0.993,1.092 v 2.903 c 0.245,0.731 0.754,1.923 1.508,2.868 0.592,0.743 1.292,1.321 2.229,1.641 0.067,0.025 0.119,0.057 0.119,0.119 C 0.594,0.006 0,0 0,0" />
          </g>
          <g
             transform="translate(319.6641,277.927)"
             id="g1559">
            <path
               inkscape:connector-curvature="0"
               id="path1561"
               style="fill:#ffffff;fill-opacity:1;fill-rule:nonzero;stroke:none"
               d="m 0,0 c 0,0.06 -0.074,0.078 -0.074,0.078 -0.73,0.134 -1.414,0.644 -1.932,1.186 -0.847,0.885 -1.557,2.012 -1.832,2.537 -0.084,0.188 0.035,0.211 0.035,0.211 v 0.002 c 1.427,0.547 1.66,1.974 1.66,2.365 0,1.806 -1.71,2.341 -3.251,2.341 -0.581,0 -0.776,-0.048 -1.381,-0.048 -0.705,0 -1.127,0.048 -1.24,0.048 -0.094,0 -0.157,-0.085 -0.157,-0.184 0,-0.435 0.995,0.304 0.995,-1.154 V 1.571 c 0,-1.343 -0.946,-0.969 -0.946,-1.294 0,-0.111 0.121,-0.148 0.195,-0.148 0.352,0 0.751,0.049 1.319,0.049 0.719,0 0.902,-0.049 1.314,-0.049 0.303,0 0.35,0.058 0.35,0.148 0,0.41 -1.273,-0.22 -1.273,1.524 v 6.127 c 0,0.365 0.266,0.365 0.653,0.365 1.398,0 2.502,-0.776 2.524,-2.243 0.018,-0.995 -0.727,-1.94 -1.965,-1.94 -0.434,0 -0.34,0.026 -0.44,0.026 -0.059,0 -0.119,-0.025 -0.119,-0.108 0,-0.114 0.091,-0.171 0.196,-0.199 0.137,-0.06 0.448,-0.108 0.774,-0.612 0.827,-1.351 1.758,-3.383 3.881,-3.383 C 0.078,-0.166 0,-0.071 0,0" />
          </g>
        </g>
      </g>
      <path
         inkscape:connector-curvature="0"
         id="path1563"
         style="fill:#ffffff;fill-opacity:1;fill-rule:nonzero;stroke:none;stroke-width:0.35277778"
         d="m 76.276457,223.05483 h -33.24366 v -12.37121 h 33.24366 z m 0.3048,-12.67601 h -0.3048 -33.243308 -0.3048 v 0.3048 12.37121 0.30445 h 0.3048 33.243308 0.3048 v -0.30445 -12.37121 z" />
    </g>
  </g>
</svg>
